# xmcd CD database file
#
# Track frame offsets:
#	150
#	10145
#	26642
#	46640
#	69672
#	98095
#	113402
#	138912
#	159182
#	179817
#	206782
#	213645
#
# Disc length: 3419 seconds
#
# Revision: 0
# Processed by: cddbd v1.5.1PL0 Copyright (c) Steve Scherf et al.
# Submitted via: CDex 1.51
#
DISCID=9f0d590c
DTITLE=ACIDMAN - equal
DYEAR=2004
DGENRE=Rock
TTITLE0=0=ALL
TTITLE1=FREAK OUT
TTITLE2=降る秋
TTITLE3=イコール
TTITLE4=水写
TTITLE5=彩　-SAI- （前編）
TTITLE6=彩　-SAI- （後編）
TTITLE7=暁を残して
TTITLE8=colors of the wind
TTITLE9=migration 10の64乗
TTITLE10=cps
TTITLE11=廻る、巡る、その核へ
EXTD=YEAR: 2004/09
EXTT0=
EXTT1=
EXTT2=
EXTT3=
EXTT4=
EXTT5=
EXTT6=
EXTT7=
EXTT8=
EXTT9=
EXTT10=
EXTT11=
PLAYORDER=
